# xmcd CD database file
#
# Track frame offsets:
#	150
#	13797
#	24574
#	36596
#	53213
#	68487
#	79717
#	90786
#	104466
#	119319
#	134558
#	146844
#	162008
#	174286
#	187657
#	202059
#	212226
#	231881
#	241701
#	253617
#
# Disc length: 3543 seconds
#
# Revision: 1
# Processed by: cddbd v1.5.2PL0 Copyright (c) Steve Scherf et al.
# Submitted via: CDex 1.51
#
DISCID=0c0dd514
DTITLE=Porter Wagoner - 20 All-Time Greatest Hits
DYEAR=2005
DGENRE=Country
TTITLE0=Carroll County Accident
TTITLE1=Sunny Side of the Mountain
TTITLE2=(A Rose From) A Bride's Bouquet
TTITLE3=Walk That Lonesome Valley
TTITLE4=Skid Row Joe
TTITLE5=Misery Loves Company
TTITLE6=I bowed My Head And Cried Again
TTITLE7=Don't Let Me Cross Over
TTITLE8=When The Summer Eagle Meets the Great Speckled Bird
TTITLE9=Cold Hard Facts of Life
TTITLE10=Sorrow on the Rocks
TTITLE11=Silence in the Wind
TTITLE12=I've Enjoyed About As Much Of This As I Can Stand
TTITLE13=Green Green Grass of Home
TTITLE14=Wayfaring Stranger
TTITLE15=A Satisfied Mind
TTITLE16=Trouble in the Amen Corner
TTITLE17=Ole Slew Foot
TTITLE18=The Farmer and the Lord
TTITLE19=Company's Coming
EXTD=YEAR: 2005
EXTT0=
EXTT1=
EXTT2=
EXTT3=
EXTT4=
EXTT5=
EXTT6=
EXTT7=
EXTT8=
EXTT9=
EXTT10=
EXTT11=
EXTT12=
EXTT13=
EXTT14=
EXTT15=
EXTT16=
EXTT17=
EXTT18=
EXTT19=
PLAYORDER=
